# 
# Generated by Sweet Home 3D - Wt gru 04 19:22:00 CET 2018
# http://www.sweethome3d.com/
# 
mtllib desk.mtl
g Frame_1
usemtl black
v 905.10065 66.1 585.31555
v 905.10065 66.1 706.2156
v 905.10065 70.9 706.2156
v 905.10065 70.9 585.31555
v 906.87396 66.0 585.31555
v 906.87396 66.0 706.2156
v 905.194 66.0 706.2156
v 905.194 66.0 585.31555
v 906.9673 66.1 706.2156
v 906.9673 70.9 706.2156
v 906.87396 71.0 706.2156
v 905.194 71.0 706.2156
v 905.194 71.0 585.31555
v 906.87396 71.0 585.31555
v 906.9673 70.9 585.31555
v 906.9673 66.1 585.31555
v 837.6486 66.1 585.31555
v 837.6486 66.1 706.2156
v 837.6486 70.9 706.2156
v 837.6486 70.9 585.31555
v 839.42194 66.0 585.31555
v 839.42194 66.0 706.2156
v 837.74194 66.0 706.2156
v 837.74194 66.0 585.31555
v 839.51526 66.1 706.2156
v 839.51526 70.9 706.2156
v 839.42194 71.0 706.2156
v 837.74194 71.0 706.2156
v 837.74194 71.0 585.31555
v 839.42194 71.0 585.31555
v 839.5153 70.9 585.31555
v 839.5153 66.1 585.31555
v 842.222 66.1 582.8456
v 902.4126 66.1 582.8456
v 902.4126 70.9 582.8456
v 842.222 70.9 582.8456
v 842.222 66.0 581.1989
v 902.4126 66.0 581.1989
v 902.4126 66.0 582.7589
v 842.222 66.0 582.7589
v 902.4126 66.1 581.11224
v 902.4126 70.9 581.11224
v 902.4126 71.0 581.1989
v 902.4126 71.0 582.7589
v 842.222 71.0 582.7589
v 842.222 71.0 581.1989
v 842.222 70.9 581.11224
v 842.222 66.1 581.11224
v 842.2219 66.1 710.4189
v 902.4126 66.1 710.4189
v 902.4126 70.9 710.4189
v 842.2219 70.9 710.4189
v 842.2219 66.0 708.7722
v 902.4126 66.0 708.7722
v 902.4126 66.0 710.3322
v 842.2219 66.0 710.3322
v 902.4126 66.1 708.68555
v 902.4126 70.9 708.68555
v 902.4126 71.0 708.7722
v 902.4126 71.0 710.3322
v 842.2219 71.0 710.3322
v 842.2219 71.0 708.7722
v 842.2219 70.9 708.68555
v 842.2219 66.1 708.68555
vn -1.0 0.0 -0
vn -0.0 -0.99999994 0.0
vn -0 0.0 1.0
vn 0.0 0.99999994 0.0
vn 1.0 -0.0 0
vn -0.6823183 0.7310553 -0
vn 0.6823183 0.7310553 0
vn 0.6823291 -0.7310452 0
vn -0.6823291 -0.7310452 -0
vn 0 -0.0 -1.0
vn -0.0 -1.0 0.0
vn 0.0 1.0 0.0
vn -0.6823134 0.73105973 -0
vn 0.6823134 0.73105973 0
vn 0.68232435 -0.73104966 0
vn -0.68232435 -0.73104966 -0
vn -0 0.75569314 0.6549259
vn 0 0.75569266 -0.6549264
vn 0 -0.755683 -0.65493757
vn -0 -0.7556834 0.65493697
vn -0 0.7557084 0.65490824
vn 0 0.7556698 -0.6549528
vn 0 -0.7556601 -0.65496397
vn -0 -0.7556987 0.65491945
f 1//1 2//1 3//1
f 1//1 3//1 4//1
f 5//2 6//2 7//2
f 5//2 7//2 8//2
f 2//3 7//3 6//3
f 2//3 6//3 9//3
f 2//3 9//3 10//3
f 2//3 10//3 11//3
f 2//3 11//3 12//3
f 2//3 12//3 3//3
f 13//4 12//4 11//4
f 13//4 11//4 14//4
f 15//5 10//5 9//5
f 15//5 9//5 16//5
f 4//6 3//6 12//6
f 4//6 12//6 13//6
f 10//7 15//7 14//7
f 10//7 14//7 11//7
f 6//8 5//8 16//8
f 6//8 16//8 9//8
f 2//9 1//9 8//9
f 2//9 8//9 7//9
f 4//10 13//10 14//10
f 4//10 14//10 15//10
f 4//10 15//10 16//10
f 4//10 16//10 5//10
f 4//10 5//10 8//10
f 4//10 8//10 1//10
f 17//1 18//1 19//1
f 17//1 19//1 20//1
f 21//11 22//11 23//11
f 21//11 23//11 24//11
f 18//3 23//3 22//3
f 18//3 22//3 25//3
f 18//3 25//3 26//3
f 18//3 26//3 27//3
f 18//3 27//3 28//3
f 18//3 28//3 19//3
f 29//12 28//12 27//12
f 29//12 27//12 30//12
f 31//5 26//5 25//5
f 31//5 25//5 32//5
f 20//13 19//13 28//13
f 20//13 28//13 29//13
f 26//14 31//14 30//14
f 26//14 30//14 27//14
f 22//15 21//15 32//15
f 22//15 32//15 25//15
f 18//16 17//16 24//16
f 18//16 24//16 23//16
f 20//10 29//10 30//10
f 20//10 30//10 31//10
f 20//10 31//10 32//10
f 20//10 32//10 21//10
f 20//10 21//10 24//10
f 20//10 24//10 17//10
f 33//3 34//3 35//3
f 33//3 35//3 36//3
f 37//11 38//11 39//11
f 37//11 39//11 40//11
f 34//5 39//5 38//5
f 34//5 38//5 41//5
f 34//5 41//5 42//5
f 34//5 42//5 43//5
f 34//5 43//5 44//5
f 34//5 44//5 35//5
f 45//12 44//12 43//12
f 45//12 43//12 46//12
f 47//10 42//10 41//10
f 47//10 41//10 48//10
f 36//17 35//17 44//17
f 36//17 44//17 45//17
f 42//18 47//18 46//18
f 42//18 46//18 43//18
f 38//19 37//19 48//19
f 38//19 48//19 41//19
f 34//20 33//20 40//20
f 34//20 40//20 39//20
f 36//1 45//1 46//1
f 36//1 46//1 47//1
f 36//1 47//1 48//1
f 36//1 48//1 37//1
f 36//1 37//1 40//1
f 36//1 40//1 33//1
f 49//3 50//3 51//3
f 49//3 51//3 52//3
f 53//11 54//11 55//11
f 53//11 55//11 56//11
f 50//5 55//5 54//5
f 50//5 54//5 57//5
f 50//5 57//5 58//5
f 50//5 58//5 59//5
f 50//5 59//5 60//5
f 50//5 60//5 51//5
f 61//12 60//12 59//12
f 61//12 59//12 62//12
f 63//10 58//10 57//10
f 63//10 57//10 64//10
f 52//21 51//21 60//21
f 52//21 60//21 61//21
f 58//22 63//22 62//22
f 58//22 62//22 59//22
f 54//23 53//23 64//23
f 54//23 64//23 57//23
f 50//24 49//24 56//24
f 50//24 56//24 55//24
f 52//1 61//1 62//1
f 52//1 62//1 63//1
f 52//1 63//1 64//1
f 52//1 64//1 53//1
f 52//1 53//1 56//1
f 52//1 56//1 49//1
g Feet_2
usemtl black
v 902.4126 -0 710.4622
v 902.4126 71.0 710.4622
v 902.4126 71.0 706.30225
v 902.4126 -0 706.30225
v 906.98596 -0 710.5489
v 906.98596 71.0 710.5489
v 902.5059 71.0 710.5489
v 902.5059 -0 710.5489
v 907.0793 71.0 710.4622
v 907.0793 71.0 706.30225
v 906.98596 71.0 706.2156
v 902.5059 71.0 706.2156
v 902.5059 -0 706.2156
v 906.98596 -0 706.2156
v 907.0793 -0 706.30225
v 907.0793 -0 710.4622
v 837.54596 -0 710.4622
v 837.54596 71.0 710.4622
v 837.54596 71.0 706.30225
v 837.54596 -0 706.30225
v 842.11926 -0 710.5489
v 842.11926 71.0 710.5489
v 837.6393 71.0 710.5489
v 837.6393 -0 710.5489
v 842.21265 71.0 710.4622
v 842.21265 71.0 706.30225
v 842.11926 71.0 706.2156
v 837.6393 71.0 706.2156
v 837.6393 -0 706.2156
v 842.11926 -0 706.2156
v 842.21265 -0 706.30225
v 842.21265 -0 710.4622
v 902.4126 -0 585.2289
v 902.4126 71.0 585.2289
v 902.4126 71.0 581.0689
v 902.4126 -0 581.0689
v 906.98596 -0 585.31555
v 906.98596 71.0 585.31555
v 902.506 71.0 585.31555
v 902.506 -0 585.31555
v 907.0793 71.0 585.2289
v 907.0793 71.0 581.0689
v 906.98596 71.0 580.98224
v 902.506 71.0 580.98224
v 902.506 -0 580.98224
v 906.98596 -0 580.98224
v 907.0793 -0 581.0689
v 907.0793 -0 585.2289
v 837.54596 -0 585.2289
v 837.54596 71.0 585.2289
v 837.54596 71.0 581.0689
v 837.54596 -0 581.0689
v 842.11926 -0 585.31555
v 842.11926 71.0 585.31555
v 837.6393 71.0 585.31555
v 837.6393 -0 585.31555
v 842.21265 71.0 585.2289
v 842.21265 71.0 581.0689
v 842.11926 71.0 580.98224
v 837.6393 71.0 580.98224
v 837.6393 -0 580.98224
v 842.11926 -0 580.98224
v 842.21265 -0 581.0689
v 842.21265 -0 585.2289
vn -0.73281366 0.0 -0.68042934
vn 0.73279357 0.0 -0.6804511
vn 0.73279345 0.0 0.6804512
vn -0.7328138 0.0 0.68042934
vn -0.7328092 0.0 -0.68043417
vn 0.7328093 0.0 -0.68043405
vn 0.7328092 0.0 0.68043417
vn -0.7328093 0.0 0.68043405
vn -0.73279786 0.0 -0.6804464
vn 0.73277766 0.0 -0.6804681
vn 0.73277766 0.0 0.68046814
vn -0.73279786 0.0 0.6804463
vn -0.73279345 0.0 -0.6804512
vn -0.73279357 0.0 0.6804511
f 65//1 66//1 67//1
f 65//1 67//1 68//1
f 69//3 70//3 71//3
f 69//3 71//3 72//3
f 66//12 71//12 70//12
f 66//12 70//12 73//12
f 66//12 73//12 74//12
f 66//12 74//12 75//12
f 66//12 75//12 76//12
f 66//12 76//12 67//12
f 77//10 76//10 75//10
f 77//10 75//10 78//10
f 79//5 74//5 73//5
f 79//5 73//5 80//5
f 68//25 67//25 76//25
f 68//25 76//25 77//25
f 74//26 79//26 78//26
f 74//26 78//26 75//26
f 70//27 69//27 80//27
f 70//27 80//27 73//27
f 66//28 65//28 72//28
f 66//28 72//28 71//28
f 68//11 77//11 78//11
f 68//11 78//11 79//11
f 68//11 79//11 80//11
f 68//11 80//11 69//11
f 68//11 69//11 72//11
f 68//11 72//11 65//11
f 81//1 82//1 83//1
f 81//1 83//1 84//1
f 85//3 86//3 87//3
f 85//3 87//3 88//3
f 82//12 87//12 86//12
f 82//12 86//12 89//12
f 82//12 89//12 90//12
f 82//12 90//12 91//12
f 82//12 91//12 92//12
f 82//4 92//4 83//4
f 93//10 92//10 91//10
f 93//10 91//10 94//10
f 95//5 90//5 89//5
f 95//5 89//5 96//5
f 84//29 83//29 92//29
f 84//29 92//29 93//29
f 90//30 95//30 94//30
f 90//30 94//30 91//30
f 86//31 85//31 96//31
f 86//31 96//31 89//31
f 82//32 81//32 88//32
f 82//32 88//32 87//32
f 84//11 93//11 94//11
f 84//11 94//11 95//11
f 84//11 95//11 96//11
f 84//11 96//11 85//11
f 84//11 85//11 88//11
f 84//2 88//2 81//2
f 97//1 98//1 99//1
f 97//1 99//1 100//1
f 101//3 102//3 103//3
f 101//3 103//3 104//3
f 98//12 103//12 102//12
f 98//12 102//12 105//12
f 98//12 105//12 106//12
f 98//12 106//12 107//12
f 98//12 107//12 108//12
f 98//12 108//12 99//12
f 109//10 108//10 107//10
f 109//10 107//10 110//10
f 111//5 106//5 105//5
f 111//5 105//5 112//5
f 100//33 99//33 108//33
f 100//33 108//33 109//33
f 106//34 111//34 110//34
f 106//34 110//34 107//34
f 102//35 101//35 112//35
f 102//35 112//35 105//35
f 98//36 97//36 104//36
f 98//36 104//36 103//36
f 100//11 109//11 110//11
f 100//11 110//11 111//11
f 100//11 111//11 112//11
f 100//11 112//11 101//11
f 100//11 101//11 104//11
f 100//11 104//11 97//11
f 113//1 114//1 115//1
f 113//1 115//1 116//1
f 117//3 118//3 119//3
f 117//3 119//3 120//3
f 114//12 119//12 118//12
f 114//12 118//12 121//12
f 114//12 121//12 122//12
f 114//12 122//12 123//12
f 114//12 123//12 124//12
f 114//12 124//12 115//12
f 125//10 124//10 123//10
f 125//10 123//10 126//10
f 127//5 122//5 121//5
f 127//5 121//5 128//5
f 116//37 115//37 124//37
f 116//37 124//37 125//37
f 122//26 127//26 126//26
f 122//26 126//26 123//26
f 118//27 117//27 128//27
f 118//27 128//27 121//27
f 114//38 113//38 120//38
f 114//38 120//38 119//38
f 116//11 125//11 126//11
f 116//11 126//11 127//11
f 116//11 127//11 128//11
f 116//11 128//11 117//11
f 116//11 117//11 120//11
f 116//11 120//11 113//11
g Table_3
usemtl lighttannew
v 837.3126 71.25 710.5489
v 837.3126 73.75 710.5489
v 837.3126 73.75 580.98224
v 837.3126 71.25 580.98224
v 907.0793 71.25 710.76556
v 907.0793 73.75 710.76556
v 837.54596 73.75 710.76556
v 837.54596 71.25 710.76556
v 907.0793 74.0 710.5489
v 907.0793 74.0 580.98224
v 837.54596 74.0 580.98224
v 837.54596 74.0 710.5489
v 837.54596 71.25 580.76556
v 837.54596 73.75 580.76556
v 907.0793 73.75 580.76556
v 907.0793 71.25 580.76556
v 907.3126 71.25 580.98224
v 907.3126 73.75 580.98224
v 907.3126 73.75 710.5489
v 907.3126 71.25 710.5489
v 837.54596 71.0 580.98224
v 907.0793 71.0 580.98224
v 837.54596 71.0 710.5489
v 907.0793 71.0 710.5489
vn -0.57637066 -0.61754054 -0.53520143
vn -0.57637066 0.61754054 -0.53520143
vn 0.57637095 -0.61754036 -0.5352012
vn 0.57637095 0.61754036 -0.5352012
vn -0.5763666 -0.6175362 0.5352107
vn -0.5763666 0.6175362 0.5352107
vn 0.5763669 -0.617536 0.53521067
vn 0.5763669 0.617536 0.53521067
vn 0 -0.7556894 -0.6549303
vn 0 0.7556894 -0.6549303
vn 0.73279375 0.0 -0.6804508
vn 0.6823183 -0.7310553 0
vn 0.73278534 0.0 0.6804598
vn -0 -0.75568134 0.6549394
vn -0 0.75568134 0.6549394
vn -0.73278517 0.0 0.6804601
vn -0.68231803 -0.73105556 -0
vn -0.68231803 0.73105556 -0
f 129//1 130//1 131//1
f 129//1 131//1 132//1
f 133//3 134//3 135//3
f 133//3 135//3 136//3
f 137//12 138//12 139//12
f 137//12 139//12 140//12
f 141//10 142//10 143//10
f 141//10 143//10 144//10
f 145//5 146//5 147//5
f 145//5 147//5 148//5
f 149//39 132//39 141//39
f 131//40 139//40 142//40
f 150//41 144//41 145//41
f 138//42 146//42 143//42
f 151//43 136//43 129//43
f 140//44 130//44 135//44
f 152//45 148//45 133//45
f 137//46 134//46 147//46
f 150//47 149//47 141//47
f 150//47 141//47 144//47
f 132//37 131//37 142//37
f 132//37 142//37 141//37
f 139//48 138//48 143//48
f 139//48 143//48 142//48
f 146//49 145//49 144//49
f 146//49 144//49 143//49
f 152//50 150//50 145//50
f 152//50 145//50 148//50
f 138//7 137//7 147//7
f 138//7 147//7 146//7
f 134//51 133//51 148//51
f 134//51 148//51 147//51
f 151//52 152//52 133//52
f 151//52 133//52 136//52
f 137//53 140//53 135//53
f 137//53 135//53 134//53
f 130//54 129//54 136//54
f 130//54 136//54 135//54
f 149//55 151//55 129//55
f 149//55 129//55 132//55
f 140//56 139//56 131//56
f 140//56 131//56 130//56
f 150//11 152//11 151//11
f 150//11 151//11 149//11
