# 
# Generated by Sweet Home 3D - N lis 25 21:56:40 CET 2018
# http://www.sweethome3d.com/
# 
mtllib dishwasher.mtl
g PanneauCommande_1
usemtl white
v 328.44226 74.0 934.0961
v 328.44226 74.0 935.4762
v 305.94226 74.0 934.4819
v 327.9975 74.0 933.5075
v 283.90128 74.0 933.4876
v 327.98328 74.0 933.4876
v 283.88702 74.0 933.5075
v 283.44226 74.0 935.4762
v 283.44226 74.0 934.0961
v 283.83002 74.095 933.4876
v 305.94226 79.5 933.4876
v 328.0545 74.095 933.4876
v 283.44226 74.612 933.4876
v 283.44226 84.388 933.4876
v 283.83002 84.905 933.4876
v 283.90128 85.0 933.4876
v 327.98328 85.0 933.4876
v 328.0545 84.905 933.4876
v 328.44226 84.388 933.4876
v 328.44226 74.612 933.4876
v 328.44226 74.518 933.58105
v 328.44226 79.5 934.48193
v 328.44226 84.482 933.58105
v 328.44226 85.0 934.0961
v 328.44226 85.0 935.4762
v 305.94226 79.5 935.4762
v 283.44226 85.0 935.4762
v 327.9975 85.0 933.5075
v 305.94226 85.0 934.4819
v 283.88702 85.0 933.5075
v 283.44226 85.0 934.0961
v 283.44226 79.5 934.4819
v 283.44226 74.518 933.58105
v 283.44226 84.482 933.58105
v 328.28928 74.203995 933.6904
v 283.59528 74.203995 933.6904
v 328.28928 84.796 933.6904
v 283.59528 84.796 933.6904
vn 0.0 -1.0 -0.0
vn 0.0000001 0.0 -0.99999994
vn 0.0000001 0.0 -1.0
vn 1.0 0.0 0.0000001
vn -0.0000001 0.0 1.0
vn 0.0 1.0 0.0
vn -1.0 0.0 -0.0000001
vn 0.46956503 -0.6260867 -0.62251437
vn 0.46863604 -0.6269619 -0.62233365
vn 0.4690026 -0.65656155 -0.59073126
vn 0.4695624 -0.62608314 -0.6225199
vn 0.46956235 -0.6260831 -0.6225199
vn 0.469553 -0.62608135 -0.6225288
vn -0.46956223 -0.6260831 -0.6225201
vn -0.46900252 -0.6565616 -0.59073144
vn -0.46863592 -0.6269619 -0.6223337
vn -0.4695649 -0.6260867 -0.6225144
vn -0.46955293 -0.62608135 -0.6225289
vn -0.4695623 -0.62608314 -0.6225201
vn 0.46900263 0.6565616 -0.5907314
vn 0.46956235 0.6260831 -0.62252
vn 0.4695619 0.62608606 -0.6225174
vn 0.46956503 0.6260867 -0.62251437
vn 0.46863604 0.6269619 -0.62233365
vn -0.46900252 0.65656155 -0.5907313
vn -0.4695623 0.62608314 -0.62251997
vn -0.46956182 0.6260861 -0.6225174
vn -0.4695649 0.6260867 -0.6225144
vn -0.46863592 0.6269619 -0.6223337
f 1//1 2//1 3//1
f 1//1 3//1 4//1
f 5//1 6//1 4//1
f 4//1 3//1 7//1
f 5//1 4//1 7//1
f 8//1 9//1 7//1
f 8//1 7//1 3//1
f 2//1 8//1 3//1
f 6//2 5//2 10//2
f 10//3 11//3 12//3
f 6//3 10//3 12//3
f 13//3 14//3 15//3
f 15//3 11//3 10//3
f 13//3 15//3 10//3
f 16//2 17//2 18//2
f 18//3 11//3 15//3
f 16//3 18//3 15//3
f 19//3 20//3 12//3
f 12//3 11//3 18//3
f 19//3 12//3 18//3
f 2//4 1//4 21//4
f 2//4 21//4 22//4
f 20//4 19//4 23//4
f 23//4 22//4 21//4
f 20//4 23//4 21//4
f 24//4 25//4 22//4
f 24//4 22//4 23//4
f 25//4 2//4 22//4
f 8//5 2//5 26//5
f 2//5 25//5 26//5
f 25//5 27//5 26//5
f 27//5 8//5 26//5
f 25//6 24//6 28//6
f 25//6 28//6 29//6
f 17//6 16//6 30//6
f 30//6 29//6 28//6
f 17//6 30//6 28//6
f 31//6 27//6 29//6
f 31//6 29//6 30//6
f 27//6 25//6 29//6
f 9//7 8//7 32//7
f 9//7 32//7 33//7
f 8//7 27//7 32//7
f 27//7 31//7 34//7
f 27//7 34//7 32//7
f 14//7 13//7 33//7
f 33//7 32//7 34//7
f 14//7 33//7 34//7
f 21//8 1//8 35//8
f 1//9 4//9 35//9
f 4//10 6//10 35//10
f 6//11 12//11 35//11
f 12//12 20//12 35//12
f 20//13 21//13 35//13
f 10//14 5//14 36//14
f 5//15 7//15 36//15
f 7//16 9//16 36//16
f 9//17 33//17 36//17
f 33//18 13//18 36//18
f 13//19 10//19 36//19
f 17//20 28//20 37//20
f 18//21 17//21 37//21
f 19//22 18//22 37//22
f 23//23 19//23 37//23
f 24//23 23//23 37//23
f 28//24 24//24 37//24
f 30//25 16//25 38//25
f 16//26 15//26 38//26
f 15//27 14//27 38//27
f 14//28 34//28 38//28
f 34//28 31//28 38//28
f 31//29 30//29 38//29
g Porte_2
usemtl white
v 328.44226 9.742001 933.3643
v 328.44226 9.845999 935.3499
v 305.94226 9.794 934.3576
v 283.44226 9.742001 933.3643
v 283.44226 9.845999 935.3499
v 305.94226 41.697998 931.69885
v 283.44226 73.654 930.0344
v 328.44226 73.654 930.0344
v 328.44226 41.75 932.6922
v 328.44226 73.758 932.02
v 305.94226 41.802 933.6855
v 283.44226 73.758 932.02
v 305.94226 73.706 931.02673
v 283.44226 41.75 932.6922
vn 0.0000006 -0.9986621 0.051710792
vn -0 -0.99866337 0.05168495
vn -0.0000007 -0.9986621 0.051710792
vn -0 -0.99866074 0.051736664
vn 0.0000001 -0.052643444 -0.99861336
vn -0.0000124 -0.052627843 -0.9986142
vn 0.0000001 -0.052612245 -0.99861497
vn 0.0000126 -0.052627843 -0.9986142
vn -0.0000001 0.052612152 0.99861497
vn 0.0000125 0.052627843 0.9986142
vn -0.0000001 0.05264353 0.99861336
vn -0.0000127 0.052627843 0.9986142
vn 0.0000006 0.998662 -0.05171227
vn 0 0.99866074 -0.051736515
vn -0.0000006 0.998662 -0.05171227
vn 0 0.99866325 -0.051688053
f 39//30 40//30 41//30
f 42//31 39//31 41//31
f 43//32 42//32 41//32
f 40//33 43//33 41//33
f 39//34 42//34 44//34
f 42//35 45//35 44//35
f 45//36 46//36 44//36
f 46//37 39//37 44//37
f 40//4 39//4 47//4
f 39//4 46//4 47//4
f 46//4 48//4 47//4
f 48//4 40//4 47//4
f 43//38 40//38 49//38
f 40//39 48//39 49//39
f 48//40 50//40 49//40
f 50//41 43//41 49//41
f 48//42 46//42 51//42
f 46//43 45//43 51//43
f 45//44 50//44 51//44
f 50//45 48//45 51//45
f 42//7 43//7 52//7
f 43//7 50//7 52//7
f 50//7 45//7 52//7
f 45//7 42//7 52//7
g Corps_3
usemtl white
v 326.94226 5.949998 992.74756
v 326.94226 5.949998 937.4648
v 305.79227 5.949998 965.10614
v 284.64227 5.949998 937.4648
v 284.64227 5.949998 992.74756
v 326.94226 39.95 965.10614
v 326.94226 73.95 937.4648
v 326.94226 73.95 992.74756
v 305.79227 39.95 992.74756
v 284.64227 73.95 992.74756
v 305.79227 73.95 965.10614
v 284.64227 73.95 937.4648
v 284.64227 39.95 965.10614
v 285.54227 11.15 937.4648
v 326.04227 11.15 937.4648
v 326.04227 71.75 937.4648
v 285.54227 71.75 937.4648
v 326.04227 71.75 935.3768
v 326.04227 11.15 935.3768
v 328.44226 85.0 935.3768
v 285.54227 11.15 935.3768
v 283.44226 0 995.0344
v 328.44226 0 995.0344
v 305.94226 42.5 995.0344
v 283.44226 0 935.3768
v 283.44226 85.0 935.3768
v 285.54227 71.75 935.3768
v 328.44226 0 935.3768
v 328.44226 85.0 995.0344
v 305.94226 0 965.20557
v 283.44226 42.5 965.20557
v 283.44226 85.0 995.0344
v 305.94226 85.0 965.20557
v 328.44226 42.5 965.2056
f 53//6 54//6 55//6
f 54//6 56//6 55//6
f 56//6 57//6 55//6
f 57//6 53//6 55//6
f 54//7 53//7 58//7
f 59//7 54//7 58//7
f 60//7 59//7 58//7
f 53//7 60//7 58//7
f 53//3 57//3 61//3
f 60//3 53//3 61//3
f 62//3 60//3 61//3
f 57//3 62//3 61//3
f 59//1 60//1 63//1
f 64//1 59//1 63//1
f 62//1 64//1 63//1
f 60//1 62//1 63//1
f 57//4 56//4 65//4
f 62//4 57//4 65//4
f 64//4 62//4 65//4
f 56//4 64//4 65//4
f 66//5 56//5 67//5
f 67//5 56//5 54//5
f 66//5 64//5 56//5
f 68//5 59//5 69//5
f 69//5 59//5 64//5
f 68//5 54//5 59//5
f 64//5 66//5 69//5
f 54//5 68//5 67//5
f 68//7 70//7 71//7
f 70//3 72//3 71//3
f 66//6 67//6 73//6
f 74//5 75//5 76//5
f 77//3 78//3 73//3
f 70//1 69//1 79//1
f 68//1 69//1 70//1
f 80//3 71//3 72//3
f 72//3 70//3 79//3
f 73//4 69//4 66//4
f 75//5 81//5 76//5
f 67//6 71//6 73//6
f 71//7 67//7 68//7
f 80//1 75//1 82//1
f 80//3 73//3 71//3
f 77//1 80//1 82//1
f 78//3 79//3 73//3
f 72//3 79//3 78//3
f 77//3 73//3 80//3
f 73//4 79//4 69//4
f 75//1 74//1 82//1
f 74//1 77//1 82//1
f 78//7 77//7 83//7
f 77//7 74//7 83//7
f 74//7 84//7 83//7
f 84//7 78//7 83//7
f 72//6 78//6 85//6
f 78//6 84//6 85//6
f 84//6 81//6 85//6
f 81//6 72//6 85//6
f 80//4 72//4 86//4
f 72//4 81//4 86//4
f 81//4 75//4 86//4
f 75//4 80//4 86//4
f 81//5 84//5 76//5
f 84//5 74//5 76//5
g Cylinder_9_4
usemtl flwhite1
v 295.46628 77.557 932.6922
v 294.91727 79.325 932.6922
v 296.79227 79.325 932.6922
v 296.79227 76.825 932.6922
v 298.11826 77.557 932.6922
v 298.66727 79.325 932.6922
v 298.11826 81.093 932.6922
v 296.79227 81.825 932.6922
v 295.46628 81.093 932.6922
v 294.91727 79.325 933.68646
v 295.46628 77.557 933.68646
v 296.79227 76.825 933.68646
v 298.11826 77.557 933.68646
v 298.66727 79.325 933.68646
v 298.11826 81.093 933.68646
v 296.79227 81.825 933.68646
v 295.46628 81.093 933.68646
v 296.79227 79.325 933.68646
vn -0.59999996 -0.8 -0.0000001
vn 0.59999996 -0.8 0.0000001
vn 0.59999996 0.8 0.0000001
vn -0.59999996 0.8 -0.0000001
f 87//3 88//3 89//3
f 90//3 87//3 89//3
f 91//3 90//3 89//3
f 92//3 91//3 89//3
f 93//3 92//3 89//3
f 94//3 93//3 89//3
f 95//3 94//3 89//3
f 88//3 95//3 89//3
f 96//7 88//7 87//46
f 97//46 87//46 90//1
f 98//1 90//1 91//47
f 99//47 91//47 92//4
f 100//4 92//4 93//48
f 101//48 93//48 94//6
f 102//6 94//6 95//49
f 103//49 95//49 88//7
f 96//7 87//46 97//46
f 97//46 90//1 98//1
f 98//1 91//47 99//47
f 99//47 92//4 100//4
f 100//4 93//48 101//48
f 101//48 94//6 102//6
f 102//6 95//49 103//49
f 103//49 88//7 96//7
f 104//5 96//5 97//5
f 104//5 97//5 98//5
f 104//5 98//5 99//5
f 104//5 99//5 100//5
f 104//5 100//5 101//5
f 104//5 101//5 102//5
f 104//5 102//5 103//5
f 104//5 103//5 96//5
g Cylinder_9_1_5
usemtl flwhite1
v 288.56625 77.557 932.6922
v 288.01727 79.325 932.6922
v 289.89227 79.325 932.6922
v 289.89227 76.825 932.6922
v 291.21826 77.557 932.6922
v 291.76727 79.325 932.6922
v 291.21826 81.093 932.6922
v 289.89227 81.825 932.6922
v 288.56625 81.093 932.6922
v 288.01727 79.325 933.68646
v 288.56625 77.557 933.68646
v 289.89227 76.825 933.68646
v 291.21826 77.557 933.68646
v 291.76727 79.325 933.68646
v 291.21826 81.093 933.68646
v 289.89227 81.825 933.68646
v 288.56625 81.093 933.68646
v 289.89227 79.325 933.68646
f 105//3 106//3 107//3
f 108//3 105//3 107//3
f 109//3 108//3 107//3
f 110//3 109//3 107//3
f 111//3 110//3 107//3
f 112//3 111//3 107//3
f 113//3 112//3 107//3
f 106//3 113//3 107//3
f 114//7 106//7 105//46
f 115//46 105//46 108//1
f 116//1 108//1 109//47
f 117//47 109//47 110//4
f 118//4 110//4 111//48
f 119//48 111//48 112//6
f 120//6 112//6 113//49
f 121//49 113//49 106//7
f 114//7 105//46 115//46
f 115//46 108//1 116//1
f 116//1 109//47 117//47
f 117//47 110//4 118//4
f 118//4 111//48 119//48
f 119//48 112//6 120//6
f 120//6 113//49 121//49
f 121//49 106//7 114//7
f 122//5 114//5 115//5
f 122//5 115//5 116//5
f 122//5 116//5 117//5
f 122//5 117//5 118//5
f 122//5 118//5 119//5
f 122//5 119//5 120//5
f 122//5 120//5 121//5
f 122//5 121//5 114//5
