# 
# Generated by Sweet Home 3D - Cz lis 22 11:47:35 CET 2018
# http://www.sweethome3d.com/
# 
mtllib lab012-incare.mtl
g Pied_1_1
usemtl flblonde
v 209.44225 0 480.87085
v 207.44225 0 478.87085
v 211.44225 0 478.87085
v 209.44225 68.30769 480.87085
v 211.44225 68.30769 478.87085
v 207.44225 68.30769 478.87085
v 208.02785 0 477.45645
v 209.44225 0 476.87085
v 210.85664 0 477.45645
v 210.85664 0 480.28525
v 208.02785 0 480.28525
v 209.44225 68.30769 476.87085
v 208.02785 68.30769 477.45645
v 208.02785 68.30769 480.28525
v 210.85664 68.30769 480.28525
v 210.85664 68.30769 477.45645
vn 0.0 -1.0 0.0
vn 0.0 1.0 0.0
f 1//1 2//1 3//1
f 4//2 5//2 6//2
f 7//1 8//1 2//1
f 9//1 3//1 8//1
f 10//1 1//1 3//1
f 11//1 2//1 1//1
f 8//1 3//1 2//1
f 12//2 13//2 6//2
f 6//2 14//2 4//2
f 4//2 15//2 5//2
f 5//2 16//2 12//2
f 12//2 6//2 5//2
g Pied_1_12_2
usemtl flblonde
vn -0.7071073 0.0 0.7071063
vn -1.0 0.0 0.0000003
vn -0.0000003 0.0 -1.0
vn 0.70710677 0.0 -0.70710677
vn -0.707107 0.0 -0.7071066
vn 0.7071071 0.0 0.7071065
vn -0.0000003 0.0 1.0
vn 1.0 0.0 0.0000003
f 11//3 14//3 6//4
f 11//3 6//4 2//4
f 8//5 12//5 16//6
f 8//5 16//6 9//6
f 2//4 6//4 13//7
f 2//4 13//7 7//7
f 7//7 13//7 12//5
f 7//7 12//5 8//5
f 10//8 15//8 4//9
f 10//8 4//9 1//9
f 1//9 4//9 14//3
f 1//9 14//3 11//3
f 9//6 16//6 5//10
f 9//6 5//10 3//10
f 3//10 5//10 15//8
f 3//10 15//8 10//8
g Pied_3
usemtl flblonde
v 277.44226 68.30769 480.87085
v 279.44223 68.30769 478.87085
v 275.44226 68.30769 478.87085
v 279.44223 0 478.87085
v 277.44226 0 480.87085
v 275.44226 0 478.87085
v 277.44226 68.30769 476.87085
v 276.02783 68.30769 477.45645
v 276.02783 68.30769 480.28525
v 278.85666 68.30769 480.28525
v 278.85666 68.30769 477.45645
v 276.02783 0 480.28525
v 276.02783 0 477.45645
v 277.44226 0 476.87085
v 278.85666 0 477.45645
v 278.85666 0 480.28525
f 17//2 18//2 19//2
f 20//1 21//1 22//1
f 23//2 24//2 19//2
f 19//2 25//2 17//2
f 17//2 26//2 18//2
f 18//2 27//2 23//2
f 23//2 19//2 18//2
f 28//1 22//1 21//1
f 29//1 30//1 22//1
f 31//1 20//1 30//1
f 32//1 21//1 20//1
f 22//1 30//1 20//1
g Pied_12_4
usemtl flblonde
vn 0.7071073 0.0 0.7071063
vn 0.0000003 0.0 1.0
vn -0.70710677 0.0 -0.70710677
vn 0.0000003 0.0 -1.0
vn -0.7071071 0.0 0.7071065
vn 0.707107 0.0 -0.7071066
f 20//10 18//10 26//11
f 20//10 26//11 32//11
f 32//11 26//11 17//12
f 32//11 17//12 21//12
f 29//13 24//13 23//14
f 29//13 23//14 30//14
f 28//15 25//15 19//4
f 28//15 19//4 22//4
f 22//4 19//4 24//13
f 22//4 24//13 29//13
f 30//14 23//14 27//16
f 30//14 27//16 31//16
f 21//12 17//12 25//15
f 21//12 25//15 28//15
f 31//16 27//16 18//10
f 31//16 18//10 20//10
g Pied_2_5
usemtl flblonde
v 207.44225 0 414.87085
v 209.44225 0 412.87085
v 211.44225 0 414.87085
v 209.44225 68.30769 412.87085
v 207.44225 68.30769 414.87085
v 211.44225 68.30769 414.87085
v 210.85664 0 413.45645
v 210.85664 0 416.28525
v 209.44225 0 416.87085
v 208.02785 0 416.28525
v 208.02785 0 413.45645
v 209.44225 68.30769 416.87085
v 210.85664 68.30769 416.28525
v 210.85664 68.30769 413.45645
v 208.02785 68.30769 413.45645
v 208.02785 68.30769 416.28525
f 33//1 34//1 35//1
f 36//2 37//2 38//2
f 39//1 35//1 34//1
f 40//1 41//1 35//1
f 42//1 33//1 41//1
f 43//1 34//1 33//1
f 35//1 41//1 33//1
f 44//2 45//2 38//2
f 38//2 46//2 36//2
f 36//2 47//2 37//2
f 37//2 48//2 44//2
f 44//2 38//2 37//2
g Pied_2_12_6
usemtl flblonde
vn -1.0 0.0 -0.0000003
vn -0.7071073 0.0 -0.7071063
vn 0.7071071 0.0 -0.7071065
vn 1.0 0.0 -0.0000003
vn -0.0000003 0.0 -1.0
vn 0.70710677 0.0 0.70710677
vn -0.0000003 0.0 1.0
vn -0.707107 0.0 0.7071066
f 33//17 37//17 47//18
f 33//17 47//18 43//18
f 39//19 46//19 38//20
f 39//19 38//20 35//20
f 34//21 36//21 46//19
f 34//21 46//19 39//19
f 43//18 47//18 36//21
f 43//18 36//21 34//21
f 40//22 45//22 44//23
f 40//22 44//23 41//23
f 35//20 38//20 45//22
f 35//20 45//22 40//22
f 41//23 44//23 48//24
f 41//23 48//24 42//24
f 42//24 48//24 37//17
f 42//24 37//17 33//17
g Pied_3_7
usemtl flblonde
v 277.44226 0 416.87085
v 275.44226 0 414.87085
v 279.44223 0 414.87085
v 277.44226 68.30769 416.87085
v 279.44223 68.30769 414.87085
v 275.44226 68.30769 414.87085
v 276.02783 0 413.45645
v 277.44226 0 412.87085
v 278.85666 0 413.45645
v 278.85666 0 416.28525
v 276.02783 0 416.28525
v 277.44226 68.30769 412.87085
v 276.02783 68.30769 413.45645
v 276.02783 68.30769 416.28525
v 278.85666 68.30769 416.28525
v 278.85666 68.30769 413.45645
f 49//1 50//1 51//1
f 52//2 53//2 54//2
f 55//1 56//1 50//1
f 57//1 51//1 56//1
f 58//1 49//1 51//1
f 59//1 50//1 49//1
f 56//1 51//1 50//1
f 60//2 61//2 54//2
f 54//2 62//2 52//2
f 52//2 63//2 53//2
f 53//2 64//2 60//2
f 60//2 54//2 53//2
g Pied_3_12_8
usemtl flblonde
vn -0.70710677 0.0 0.70710677
vn 0.0000003 0.0 -1.0
vn 0.7071073 0.0 -0.7071063
vn -0.7071071 0.0 -0.7071065
vn 0.707107 0.0 0.7071066
vn 0.0000003 0.0 1.0
f 59//25 62//25 54//17
f 59//25 54//17 50//17
f 56//26 60//26 64//27
f 56//26 64//27 57//27
f 50//17 54//17 61//28
f 50//17 61//28 55//28
f 55//28 61//28 60//26
f 55//28 60//26 56//26
f 58//29 63//29 52//30
f 58//29 52//30 49//30
f 49//30 52//30 62//25
f 49//30 62//25 59//25
f 57//27 64//27 53//20
f 57//27 53//20 51//20
f 51//20 53//20 63//29
f 51//20 63//29 58//29
g Plateau_9
usemtl flblonde
v 203.44225 68.30769 486.87085
v 203.44225 68.30769 406.87085
v 283.44226 68.30769 406.87085
v 283.44226 68.30769 486.87085
v 283.44226 74.0 486.87085
v 283.44226 74.0 406.87085
v 203.44225 74.0 486.87085
v 203.44225 74.0 406.87085
vn 1.0 0.0 0.0
vn 0.0 0.0 1.0
vn 0.0 0.0 -1.0
vn -1.0 -0.0 -0.0
f 65//1 66//1 67//1
f 65//1 67//1 68//1
f 69//31 68//31 67//31
f 69//31 67//31 70//31
f 69//32 71//32 65//32
f 69//32 65//32 68//32
f 70//33 67//33 66//33
f 70//33 66//33 72//33
f 65//34 71//34 72//34
f 65//34 72//34 66//34
f 70//2 72//2 71//2
f 70//2 71//2 69//2
